<mxfile host="app.diagrams.net" modified="2023-07-17T13:07:25.380Z" agent="Mozilla/5.0 (Windows NT 10.0; Win64; x64) AppleWebKit/537.36 (KHTML, like Gecko) Chrome/115.0.0.0 Safari/537.36" etag="EugdCqb4EkmiQ9dhy2_D" version="21.6.6" type="github">
  <diagram name="Page-1" id="F0PVnkbxrdtLLqiQe9D4">
    <mxGraphModel dx="1434" dy="308" grid="1" gridSize="10" guides="1" tooltips="1" connect="1" arrows="1" fold="1" page="1" pageScale="1" pageWidth="827" pageHeight="1169" math="0" shadow="0">
      <root>
        <mxCell id="0" />
        <mxCell id="1" parent="0" />
        <mxCell id="fFkGa3VDk-u6eUIVHsMF-13" value="" style="rounded=0;whiteSpace=wrap;html=1;" parent="1" vertex="1">
          <mxGeometry x="-20" y="120" width="680" height="290" as="geometry" />
        </mxCell>
        <mxCell id="fFkGa3VDk-u6eUIVHsMF-14" value="" style="rounded=0;whiteSpace=wrap;html=1;" parent="1" vertex="1">
          <mxGeometry x="160" y="140" width="470" height="260" as="geometry" />
        </mxCell>
        <mxCell id="fFkGa3VDk-u6eUIVHsMF-15" style="rounded=0;orthogonalLoop=1;jettySize=auto;html=1;exitX=0.5;exitY=0.5;exitDx=0;exitDy=0;exitPerimeter=0;entryX=0;entryY=0.5;entryDx=0;entryDy=0;endArrow=none;endFill=0;" parent="1" source="fFkGa3VDk-u6eUIVHsMF-16" target="fFkGa3VDk-u6eUIVHsMF-17" edge="1">
          <mxGeometry relative="1" as="geometry" />
        </mxCell>
        <mxCell id="fFkGa3VDk-u6eUIVHsMF-16" value="Responsable&amp;nbsp;&lt;br&gt;société" style="shape=umlActor;verticalLabelPosition=bottom;verticalAlign=top;html=1;outlineConnect=0;" parent="1" vertex="1">
          <mxGeometry x="60" y="240" width="30" height="60" as="geometry" />
        </mxCell>
        <mxCell id="fFkGa3VDk-u6eUIVHsMF-17" value="Gérer compte Client" style="ellipse;whiteSpace=wrap;html=1;" parent="1" vertex="1">
          <mxGeometry x="237" y="220" width="120" height="80" as="geometry" />
        </mxCell>
        <mxCell id="fFkGa3VDk-u6eUIVHsMF-18" style="rounded=0;orthogonalLoop=1;jettySize=auto;html=1;exitX=0;exitY=0.5;exitDx=0;exitDy=0;entryX=1;entryY=0.5;entryDx=0;entryDy=0;dashed=1;endArrow=open;endFill=0;" parent="1" source="fFkGa3VDk-u6eUIVHsMF-20" target="fFkGa3VDk-u6eUIVHsMF-17" edge="1">
          <mxGeometry relative="1" as="geometry" />
        </mxCell>
        <mxCell id="fFkGa3VDk-u6eUIVHsMF-19" value="Extend" style="edgeLabel;html=1;align=center;verticalAlign=middle;resizable=0;points=[];" parent="fFkGa3VDk-u6eUIVHsMF-18" vertex="1" connectable="0">
          <mxGeometry x="-0.3289" y="1" relative="1" as="geometry">
            <mxPoint as="offset" />
          </mxGeometry>
        </mxCell>
        <mxCell id="fFkGa3VDk-u6eUIVHsMF-20" value="Ajouter compte Client" style="ellipse;whiteSpace=wrap;html=1;" parent="1" vertex="1">
          <mxGeometry x="467" y="190" width="120" height="40" as="geometry" />
        </mxCell>
        <mxCell id="fFkGa3VDk-u6eUIVHsMF-21" style="rounded=0;orthogonalLoop=1;jettySize=auto;html=1;exitX=0;exitY=0.5;exitDx=0;exitDy=0;entryX=1;entryY=0.5;entryDx=0;entryDy=0;dashed=1;endArrow=open;endFill=0;" parent="1" source="fFkGa3VDk-u6eUIVHsMF-23" target="fFkGa3VDk-u6eUIVHsMF-17" edge="1">
          <mxGeometry relative="1" as="geometry">
            <mxPoint x="397" y="240" as="targetPoint" />
          </mxGeometry>
        </mxCell>
        <mxCell id="fFkGa3VDk-u6eUIVHsMF-22" value="Extend" style="edgeLabel;html=1;align=center;verticalAlign=middle;resizable=0;points=[];" parent="fFkGa3VDk-u6eUIVHsMF-21" vertex="1" connectable="0">
          <mxGeometry x="-0.2725" y="-1" relative="1" as="geometry">
            <mxPoint as="offset" />
          </mxGeometry>
        </mxCell>
        <mxCell id="fFkGa3VDk-u6eUIVHsMF-23" value="Modifier compte Client" style="ellipse;whiteSpace=wrap;html=1;" parent="1" vertex="1">
          <mxGeometry x="467" y="240" width="120" height="40" as="geometry" />
        </mxCell>
        <mxCell id="fFkGa3VDk-u6eUIVHsMF-24" style="rounded=0;orthogonalLoop=1;jettySize=auto;html=1;exitX=0;exitY=0.5;exitDx=0;exitDy=0;entryX=1;entryY=0.5;entryDx=0;entryDy=0;dashed=1;endArrow=open;endFill=0;" parent="1" source="fFkGa3VDk-u6eUIVHsMF-26" target="fFkGa3VDk-u6eUIVHsMF-17" edge="1">
          <mxGeometry relative="1" as="geometry">
            <mxPoint x="397" y="240" as="targetPoint" />
          </mxGeometry>
        </mxCell>
        <mxCell id="fFkGa3VDk-u6eUIVHsMF-25" value="Extend" style="edgeLabel;html=1;align=center;verticalAlign=middle;resizable=0;points=[];" parent="fFkGa3VDk-u6eUIVHsMF-24" vertex="1" connectable="0">
          <mxGeometry x="-0.3328" y="1" relative="1" as="geometry">
            <mxPoint as="offset" />
          </mxGeometry>
        </mxCell>
        <mxCell id="fFkGa3VDk-u6eUIVHsMF-26" value="Supprimer compte Client" style="ellipse;whiteSpace=wrap;html=1;" parent="1" vertex="1">
          <mxGeometry x="467" y="290" width="120" height="40" as="geometry" />
        </mxCell>
        <mxCell id="bf3qcNIN-NTtNDcyl6hW-1" style="rounded=0;orthogonalLoop=1;jettySize=auto;html=1;exitX=0;exitY=0.5;exitDx=0;exitDy=0;entryX=1;entryY=0.5;entryDx=0;entryDy=0;dashed=1;endArrow=open;endFill=0;" edge="1" parent="1" source="bf3qcNIN-NTtNDcyl6hW-3">
          <mxGeometry relative="1" as="geometry">
            <mxPoint x="310" y="300" as="targetPoint" />
          </mxGeometry>
        </mxCell>
        <mxCell id="bf3qcNIN-NTtNDcyl6hW-2" value="Extend" style="edgeLabel;html=1;align=center;verticalAlign=middle;resizable=0;points=[];" vertex="1" connectable="0" parent="bf3qcNIN-NTtNDcyl6hW-1">
          <mxGeometry x="-0.3328" y="1" relative="1" as="geometry">
            <mxPoint as="offset" />
          </mxGeometry>
        </mxCell>
        <mxCell id="bf3qcNIN-NTtNDcyl6hW-3" value="Rechercher compte Client" style="ellipse;whiteSpace=wrap;html=1;" vertex="1" parent="1">
          <mxGeometry x="420" y="330" width="120" height="40" as="geometry" />
        </mxCell>
      </root>
    </mxGraphModel>
  </diagram>
</mxfile>
